M48
INCH
T01C0.0200
T02C0.0300
T03C0.0400
T04C0.0600
%
T01
X-041000Y+032250
X-045000Y+040000
X-050000Y+033250
X-053000Y+035750
X-036500Y+034250
T02
X-046500Y+039500
X-045500Y+039500
X-044500Y+039500
X-043500Y+039500
X-042500Y+039500
X-041500Y+039500
X-040500Y+039500
X-039500Y+039500
X-038500Y+039500
X-037500Y+039500
X-036500Y+039500
X-035500Y+039500
X-034500Y+039500
X-033500Y+039500
X-032500Y+039500
X-031500Y+039500
X-030500Y+039500
X-029500Y+039500
X-028500Y+039500
X-027500Y+039500
X-027500Y+045500
X-028500Y+045500
X-029500Y+045500
X-030500Y+045500
X-031500Y+045500
X-032500Y+045500
X-033500Y+045500
X-034500Y+045500
X-035500Y+045500
X-036500Y+045500
X-037500Y+045500
X-038500Y+045500
X-039500Y+045500
X-040500Y+045500
X-041500Y+045500
X-042500Y+045500
X-043500Y+045500
X-044500Y+045500
X-045500Y+045500
X-046500Y+045500
X-033500Y+025500
X-032500Y+025500
X-031500Y+025500
X-030500Y+025500
X-029500Y+025500
X-028500Y+025500
X-027500Y+025500
X-026500Y+025500
X-025500Y+025500
X-025500Y+028500
X-026500Y+028500
X-027500Y+028500
X-028500Y+028500
X-029500Y+028500
X-030500Y+028500
X-031500Y+028500
X-032500Y+028500
X-033500Y+028500
T03
X-052500Y+034000
X-051500Y+034000
X-050500Y+034000
X-049500Y+034000
X-048500Y+034000
X-047500Y+034000
X-046500Y+034000
X-046500Y+035000
X-047500Y+035000
X-048500Y+035000
X-049500Y+035000
X-050500Y+035000
X-051500Y+035000
X-052500Y+035000
T04
X-037496Y+030500
X-037496Y+033452
X-029622Y+033452
X-031000Y+030500
X-028244Y+030500
X-049496Y+027000
X-049496Y+029952
X-041622Y+029952
X-043000Y+027000
X-040244Y+027000
M30
